COVER ::
 
http://i.minus.com/iU9sQBab04yJH.png


SCREEN ::
 
http://i.minus.com/ibuTcs6BW3pNLD.png
 
http://i.minus.com/iW1MzpaGtYDDs.png
 
http://i.minus.com/ibffJ7eCQTB6Jo.png
 
http://i.minus.com/iFfG5jlmhdatl.png
 
http://i.minus.com/ioRAH8dJnfc5Y.png
 
http://i.minus.com/ibzD4CpIe8donW.png


General ::
Format                           : AVI
Format/Info                      : Audio Video Interleave
File size                        : 56.3 MiB
Duration                         : 2mn 35s
Overall bit rate                 : 3 033 Kbps


Video Info ::
ID                               : 0
Format                           : AVC
Format/Info                      : Advanced Video Codec
Format profile                   : High@L5.1
Format settings, CABAC           : Yes
Format settings, ReFrames        : 2 frames
Format settings, GOP             : M=3, N=4
Codec ID                         : H264
Duration                         : 10s 0ms
Bit rate                         : 2 700 Kbps
Width                            : 1 280 pixels
Height                           : 544 pixels
Display aspect ratio             : 2.35:1
Frame rate                       : 30.000 fps
Color space                      : YUV
Chroma subsampling               : 4:2:0
Bit depth                        : 8 bits
Scan type                        : Progressive
Bits/(Pixel*Frame)               : 0.129
Stream size                      : 50.2 MiB (89%)


Audio Info ::
ID                               : 1
Format                           : MPEG Audio
Format version                   : Version 1
Format profile                   : Layer 3
Codec ID                         : 55
Codec ID/Hint                    : MP3
Duration                         : 2mn 35s
Bit rate mode                    : Constant
Bit rate                         : 320 Kbps
Channel(s)                       : 2 channels
Sampling rate                    : 44.1 KHz
Compression mode                 : Lossy
Stream size                      : 5.94 MiB (11%)